<svg enable-background="new 0 0 500 52.9" viewBox="0 0 500 52.9" xmlns="http://www.w3.org/2000/svg"><g fill="#1d1d1b"><path d="m200.5 28h-14.5v-8.5h-5.2v22.3h5.2v-8.5h14.5v8.5h5.3v-22.3h-5.3z"/><path d="m153.7 19.5c-1.1 2.1-2.4 5.7-2.4 11.1s1.3 9 2.4 11.1h21v-5.2h-17.4c-.4-1.5-.7-3.4-.7-5.9s.3-4.4.7-5.9h12.2v3.3h5.2v-8.5h-.1z"/><path d="m86.3 18.6-6 9.4h-8.2v-8.5h-5.2v22.3h5.2v-8.5h8.2l6 9.4 4.4-2.8-5.8-9.3 5.8-9.2z"/><path d="m96.1 19.5v22.2h5.2v-5.7h14c3.4-4.5 3.9-9.9 3.9-13.2 0-1.5-.1-2.7-.2-3.2h-22.9zm16.3 11.2h-11v-6h12.5c-.2 1.9-.6 4.1-1.5 6z"/><path d="m266.6 14h-6.2v5.2h5.2z"/><path d="m216.6 25.4v-5.8h-5.2v22.2h19.2c3.4-4.5 3.9-9.9 3.9-13.2 0-1.5-.1-2.7-.2-3.2zm11 11.2h-11v-6h12.5c-.1 1.9-.6 4-1.5 6z"/><path d="m142.6 19.5h-16.4l-4.9 21.3 5.1 1.2 1.4-6.1h13.2l1.4 6.1 5.1-1.2zm-13.7 11.3 1.4-6h8.2l1.4 6z"/><path d="m238.5 19.5h5.2v22.2h-5.2z"/><path d="m422 19.5v22.2h5.2v-5.7h14c3.4-4.5 3.9-9.9 3.9-13.2 0-1.5-.1-2.7-.2-3.2h-22.9zm16.3 11.2h-11v-6h12.5c-.2 1.9-.6 4.1-1.5 6z"/><path d="m392.9 36.5h-3.6v5.2h26.5v-22.2h-18.9zm8.1-11.7h9.5v11.8h-12.3z"/><path d="m476.7 19.5v5.3h9v17h5.3v-17h9v-5.3z"/><path d="m469.5 19.5h-16.5l-4.9 21.3 5.1 1.2 1.4-6.1h13.3l1.4 6.1 5.1-1.2zm-13.7 11.3 1.4-6h8.2l1.4 6z"/><path d="m380.7 19.5h-16.4l-4.9 21.3 5.1 1.2 1.4-6.1h13.3l1.4 6.1 5.1-1.2zm-13.7 11.3 1.4-6h8.2l1.4 6z"/><path d="m320.9 18.6-6 9.4h-8.2v-8.5h-5.3v22.3h5.3v-8.5h8.2l6 9.4 4.4-2.8-5.9-9.3 5.9-9.2z"/><path d="m270.9 23.1-15.3 8.8v-12.4h-5.3v22.3h5.3v-3.8l15.3-8.9v12.7h5.2v-22.3h-5.2z"/><path d="m354 19.5h-23.6v22.2h23.6c.2-.7.3-1.8.3-3.1 0-2.2-.6-5.2-2.5-8 1.9-2.8 2.5-5.8 2.5-8 0-1.3-.2-2.4-.3-3.1zm-18.4 17v-3.3h11.6c.8 1.1 1.3 2.2 1.6 3.3zm11.6-8.5h-11.6v-3.3h13.1c-.2 1.1-.6 2.2-1.5 3.3z"/></g><path d="m0 3.2v49.7h49.7l3.9-52.9z" fill="#cd272c"/></svg>